<svg id="visual" viewBox="0 0 900 600" width="900" height="600" xmlns="http://www.w3.org/2000/svg" xmlns:xlink="http://www.w3.org/1999/xlink" version="1.1"><rect x="0" y="0" width="900" height="600" fill="#FFFFFF"></rect><g transform="translate(511.2475367969747 242.8837091816641)"><path d="M67 -94.2C92.7 -101.3 123.4 -95.1 127.8 -77.2C132.1 -59.3 110.1 -29.7 102.4 -4.4C94.8 20.8 101.5 41.7 113.9 88.6C126.3 135.5 144.4 208.5 126.4 241.7C108.3 275 54.2 268.5 6.9 256.5C-40.3 244.5 -80.7 227.1 -123.8 208.3C-167 189.6 -213 169.5 -219 134.6C-225 99.7 -191 49.8 -202 -6.3C-212.9 -62.5 -268.8 -125 -254 -144.6C-239.2 -164.3 -153.6 -141 -99.5 -117.6C-45.3 -94.1 -22.7 -70.5 -1 -68.8C20.7 -67.1 41.3 -87.2 67 -94.2" fill="#FF6F61"></path></g></svg>