<svg id="visual" viewBox="0 0 900 600" width="900" height="600" xmlns="http://www.w3.org/2000/svg" xmlns:xlink="http://www.w3.org/1999/xlink" version="1.1"><rect x="0" y="0" width="900" height="600" fill="#009473"></rect><path d="M0 208L6.5 262C13 316 26 424 39 474.5C52 525 65 518 78 475.7C91 433.3 104 355.7 117.2 348.2C130.3 340.7 143.7 403.3 156.8 435.2C170 467 183 468 196 397.3C209 326.7 222 184.3 235 161C248 137.7 261 233.3 274 242.5C287 251.7 300 174.3 313 175.7C326 177 339 257 352 259.5C365 262 378 187 391 213.3C404 239.7 417 367.3 430.2 390.7C443.3 414 456.7 333 469.8 329.7C483 326.3 496 400.7 509 398.2C522 395.7 535 316.3 548 273C561 229.7 574 222.3 587 238.2C600 254 613 293 626 311.8C639 330.7 652 329.3 665 329.5C678 329.7 691 331.3 704 318.3C717 305.3 730 277.7 743.2 241.7C756.3 205.7 769.7 161.3 782.8 137.2C796 113 809 109 822 118C835 127 848 149 861 183.7C874 218.3 887 265.7 893.5 289.3L900 313L900 601L893.5 601C887 601 874 601 861 601C848 601 835 601 822 601C809 601 796 601 782.8 601C769.7 601 756.3 601 743.2 601C730 601 717 601 704 601C691 601 678 601 665 601C652 601 639 601 626 601C613 601 600 601 587 601C574 601 561 601 548 601C535 601 522 601 509 601C496 601 483 601 469.8 601C456.7 601 443.3 601 430.2 601C417 601 404 601 391 601C378 601 365 601 352 601C339 601 326 601 313 601C300 601 287 601 274 601C261 601 248 601 235 601C222 601 209 601 196 601C183 601 170 601 156.8 601C143.7 601 130.3 601 117.2 601C104 601 91 601 78 601C65 601 52 601 39 601C26 601 13 601 6.5 601L0 601Z" fill="#FF6F61" stroke-linecap="round" stroke-linejoin="miter"></path></svg>